<?xml version="1.0" encoding="utf-8"?>
<!-- Generator: Adobe Illustrator 16.0.4, SVG Export Plug-In . SVG Version: 6.00 Build 0)  -->
<!DOCTYPE svg PUBLIC "-//W3C//DTD SVG 1.1//EN" "http://www.w3.org/Graphics/SVG/1.1/DTD/svg11.dtd">
<svg version="1.1" id="Layer_1" xmlns="http://www.w3.org/2000/svg" xmlns:xlink="http://www.w3.org/1999/xlink" x="0px" y="0px"
	 width="834.332px" height="162.592px" viewBox="0 0 834.332 162.592" enable-background="new 0 0 834.332 162.592"
	 xml:space="preserve">
<g>
	<path fill="#FFFFFF" d="M454.96,45.414c0-0.913,0.822-1.644,1.732-1.644h2.282l37.989,40.359h0.087V46.419
		c0-0.913,0.729-1.735,1.737-1.735h8.397c0.913,0,1.736,0.822,1.736,1.735v61.447c0,0.916-0.823,1.646-1.736,1.646h-2.189
		l-38.168-41.911h-0.09v39.263c0,0.914-0.73,1.734-1.736,1.734h-8.31c-0.91,0-1.732-0.82-1.732-1.734V45.414z"/>
	<path fill="#FFFFFF" d="M525.475,46.419c0-0.913,0.823-1.735,1.733-1.735h8.674c1.004,0,1.736,0.822,1.736,1.735v37.344
		c0,7.761,5.294,13.881,13.238,13.881c7.945,0,13.332-6.12,13.332-13.791V46.419c0-0.913,0.73-1.735,1.736-1.735h8.671
		c0.913,0,1.736,0.822,1.736,1.735v37.984c0,13.878-11.05,25.109-25.476,25.109c-14.336,0-25.382-11.231-25.382-25.109V46.419z"/>
	<path fill="#FFFFFF" d="M601.729,55.641h-13.968c-1.006,0-1.736-0.823-1.736-1.736v-7.485c0-0.913,0.73-1.735,1.736-1.735h39.899
		c1.006,0,1.734,0.822,1.734,1.735v7.485c0,0.913-0.729,1.736-1.734,1.736h-13.971v51.223c0,0.914-0.823,1.734-1.733,1.734h-8.494
		c-0.914,0-1.733-0.82-1.733-1.734V55.641z"/>
	<path fill="#FFFFFF" d="M637.388,99.651l3.285-5.663c0.729-1.276,2.285-1.276,3.105-0.636c0.457,0.272,7.853,5.658,13.784,5.658
		c4.751,0,8.314-3.103,8.314-7.03c0-4.656-3.928-7.852-11.599-10.955c-8.581-3.472-17.166-8.949-17.166-19.725
		c0-8.126,6.024-17.53,20.542-17.53c9.315,0,16.436,4.749,18.265,6.12c0.914,0.545,1.186,2.1,0.548,3.012l-3.471,5.203
		c-0.729,1.096-2.101,1.826-3.197,1.096c-0.728-0.455-7.671-5.02-12.694-5.02c-5.201,0-8.031,3.469-8.031,6.391
		c0,4.29,3.379,7.212,10.773,10.228c8.857,3.56,19.081,8.856,19.081,20.635c0,9.403-8.126,18.078-21,18.078
		c-11.504,0-18.259-5.387-20.087-7.121C637.017,101.567,636.565,101.113,637.388,99.651z"/>
	<path fill="#FFFFFF" d="M26.959,46.419c0-0.913,0.73-1.735,1.646-1.735h21.639c17.621,0,32.049,14.333,32.049,31.865
		c0,17.713-14.428,32.049-32.049,32.049H28.606c-0.916,0-1.646-0.82-1.646-1.734V46.419z M49.149,97.461
		c11.868,0,20.545-8.949,20.545-20.912c0-11.869-8.678-20.818-20.545-20.818h-10.41v41.73H49.149z"/>
	<path fill="#FFFFFF" d="M85.833,106.226l28.397-61.449c0.273-0.549,0.732-1.006,1.554-1.006h0.914c0.909,0,1.278,0.458,1.553,1.006
		l28.122,61.449c0.549,1.187-0.181,2.373-1.553,2.373h-7.944c-1.367,0-2.01-0.549-2.646-1.826l-4.476-9.859h-27.3l-4.476,9.859
		c-0.366,0.914-1.186,1.826-2.649,1.826h-7.945C86.017,108.599,85.286,107.412,85.833,106.226z M125.28,86.775l-9.131-20.087h-0.274
		l-8.949,20.087H125.28z"/>
	<path fill="#FFFFFF" d="M161.271,55.641H147.3c-1.006,0-1.734-0.823-1.734-1.736v-7.485c0-0.913,0.728-1.735,1.734-1.735h39.899
		c1.006,0,1.736,0.822,1.736,1.735v7.485c0,0.913-0.73,1.736-1.736,1.736h-13.967v51.223c0,0.914-0.821,1.734-1.734,1.734h-8.493
		c-0.912,0-1.734-0.82-1.734-1.734V55.641z"/>
	<path fill="#FFFFFF" d="M188.129,106.226l28.399-61.449c0.272-0.549,0.73-1.006,1.551-1.006h0.916c0.911,0,1.279,0.458,1.551,1.006
		l28.124,61.449c0.55,1.187-0.183,2.373-1.552,2.373h-7.945c-1.368,0-2.009-0.549-2.647-1.826l-4.477-9.859h-27.297l-4.478,9.859
		c-0.366,0.914-1.184,1.826-2.648,1.826h-7.946C188.314,108.599,187.583,107.412,188.129,106.226z M227.577,86.775l-9.129-20.087
		h-0.275l-8.95,20.087H227.577z"/>
	<path fill="#FFFFFF" d="M286.327,46.419c0-0.913,0.73-1.735,1.644-1.735h21.638c17.624,0,32.052,14.333,32.052,31.865
		c0,17.713-14.429,32.049-32.052,32.049h-21.638c-0.914,0-1.644-0.82-1.644-1.734V46.419z M308.513,97.461
		c11.872,0,20.546-8.949,20.546-20.912c0-11.869-8.674-20.818-20.546-20.818h-10.411v41.73H308.513z"/>
	<path fill="#FFFFFF" d="M376.973,79.621h-20.483c-0.943,0.036-1.696,0.812-1.696,1.765c0,0.045,0.001,0.088,0.006,0.131
		c2.243,19.94,18.066,35.763,38.004,38.007c0.045,0.006,0.093,0.006,0.138,0.006c0.953,0,1.728-0.751,1.764-1.695V97.352
		C385.528,96.04,378.285,88.799,376.973,79.621z"/>
	<path fill="#FFFFFF" d="M392.94,33.751c-0.048,0-0.096,0.003-0.144,0.006c-4.347,0.492-8.497,1.621-12.356,3.303
		c-0.032,0.015-0.069,0.033-0.102,0.054c-0.823,0.477-1.12,1.515-0.68,2.351l10.243,17.742c1.521-0.61,3.131-1.035,4.802-1.275
		V35.446C394.668,34.503,393.894,33.751,392.94,33.751z"/>
	<path fill="#52B59E" d="M402.567,33.757c-0.048-0.003-0.093-0.006-0.141-0.006c-0.953,0-1.728,0.751-1.764,1.695v20.486
		c10.153,1.449,17.968,10.156,17.968,20.71c0,10.55-7.814,19.257-17.968,20.709v20.482c0.036,0.944,0.811,1.695,1.764,1.695
		c0.048,0,0.093,0,0.141-0.006c21.539-2.425,38.285-20.692,38.285-42.881C440.853,54.453,424.106,36.183,402.567,33.757z"/>
	<path fill="#52B59E" d="M374.497,42.444c-0.5-0.796-1.548-1.061-2.374-0.587c-0.019,0.012-0.036,0.024-0.057,0.036
		c-9.375,6.926-15.841,17.555-17.251,29.729c-0.008,0.045-0.012,0.09-0.015,0.135c-0.005,0.047-0.008,0.095-0.008,0.144
		c0,0.949,0.753,1.728,1.696,1.76c0.021,0.003,0.044,0.003,0.066,0.003c0.021,0,0.044,0,0.065-0.003h20.352
		c0.779-5.449,3.645-10.215,7.773-13.467L374.497,42.444z"/>
	<path fill="#FFFFFF" d="M715.833,106.226l28.398-61.449c0.273-0.549,0.731-1.007,1.553-1.007h0.914
		c0.909,0,1.278,0.458,1.553,1.007l28.122,61.449c0.55,1.187-0.181,2.373-1.553,2.373h-7.944c-1.367,0-2.01-0.549-2.646-1.826
		l-4.476-9.859h-27.301l-4.476,9.859c-0.366,0.914-1.186,1.826-2.649,1.826h-7.944C716.017,108.599,715.286,107.412,715.833,106.226
		z M755.28,86.775l-9.131-20.088h-0.274l-8.948,20.088H755.28z"/>
	<path fill="#FFFFFF" d="M803.231,54.726v51.223c0,0.914-0.82,1.734-1.734,1.734h-8.492c-0.912,0-1.734-0.82-1.734-1.734V54.726
		c0,0-0.021-0.822-0.021-1.736v-7.484c0-0.914,0.728-1.735,1.734-1.735h8.467c1.007,0,1.736,0.821,1.736,1.735v7.484"/>
</g>
<g>
	<path fill="#FFFFFF" d="M693.783,98.583c1.202-1.175,2.569-1.763,4.1-1.763c1.421,0,2.733,0.588,3.937,1.763
		c1.201,1.176,1.804,2.583,1.804,4.223c0,1.695-0.588,3.104-1.763,4.224c-1.177,1.121-2.502,1.681-3.978,1.681
		c-1.53,0-2.897-0.546-4.1-1.64c-1.203-1.093-1.804-2.515-1.804-4.265C691.979,101.166,692.58,99.759,693.783,98.583z"/>
</g>
</svg>
