<?xml version="1.0" encoding="utf-8"?>
<!-- Generator: Adobe Illustrator 16.0.4, SVG Export Plug-In . SVG Version: 6.00 Build 0)  -->
<!DOCTYPE svg PUBLIC "-//W3C//DTD SVG 1.1//EN" "http://www.w3.org/Graphics/SVG/1.1/DTD/svg11.dtd">
<svg version="1.1" id="Warstwa_1" xmlns="http://www.w3.org/2000/svg" xmlns:xlink="http://www.w3.org/1999/xlink" x="0px" y="0px"
	 width="443.483px" height="82.699px" viewBox="0 0 443.483 82.699" enable-background="new 0 0 443.483 82.699"
	 xml:space="preserve">
<text transform="matrix(1 0 0 1 17.7651 56.1973)" fill="#FFFFFF" font-family="'JosefinSans-Bold'" font-size="53">DATA D ..  NUTS</text>
<path fill-rule="evenodd" clip-rule="evenodd" fill="#FFFFFF" stroke="#FDFDFE" stroke-miterlimit="10" d="M240.883,26.58
	c0-4.786,0-9.416,0-14.046c0-0.473,0-0.943,0-1.406c8.456-0.568,22.804,7.86,23.652,23.785c0.822,15.42-11.815,26.33-23.627,26.675
	c-0.055-2.581-0.018-5.174-0.024-7.764c-0.007-2.553-0.001-5.104-0.001-7.795c4.936-1.565,8.027-4.737,7.875-10.079
	C248.618,31.048,245.686,28.093,240.883,26.58z"/>
<path fill-rule="evenodd" clip-rule="evenodd" fill="#FFFFFF" stroke="#FDFDFE" stroke-miterlimit="10" d="M213.676,38.2
	c5.266,0,10.369,0,15.33,0c1.05,1.668,1.832,3.488,3.127,4.806c1.297,1.319,3.104,2.138,4.975,3.364c0,4.738,0,9.897,0,15.05
	C228.586,62.011,214.686,53.407,213.676,38.2z"/>
<path fill-rule="evenodd" clip-rule="evenodd" fill="#FFFFFF" stroke="#FDFDFE" stroke-miterlimit="10" d="M224.627,15.197
	c0.355,0.472,0.574,0.707,0.73,0.979c2.395,4.14,4.78,8.283,7.123,12.35c-1.114,1.912-2.181,3.742-3.375,5.792
	c-4.943,0-10.151,0-15.533,0C214.439,26.163,218.088,19.914,224.627,15.197z"/>
<path fill-rule="evenodd" clip-rule="evenodd" fill="#FFFFFF" stroke="#FDFDFE" stroke-miterlimit="10" d="M237.295,10.96
	c0,5.025-0.001,9.881,0.002,14.736c0,0.908-0.455,1.298-1.566,1.205c-2.525-4.365-5.108-8.833-7.686-13.291
	C230.166,12.002,233.709,10.968,237.295,10.96z"/>
</svg>
